solid printed_v3
facet normal 0.000000 0.000000 1.000000
  outer loop
    vertex -28.000000 -28.000000 0.000000
    vertex 28.000000 -28.000000 0.000000
    vertex 28.000000 28.000000 0.000000
  endloop
endfacet
facet normal 0.000000 0.000000 1.000000
  outer loop
    vertex -28.000000 -28.000000 0.000000
    vertex 28.000000 28.000000 0.000000
    vertex -28.000000 28.000000 0.000000
  endloop
endfacet
facet normal 0.000000 0.000000 1.000000
  outer loop
    vertex -28.000000 -28.000000 6.000000
    vertex 28.000000 -28.000000 6.000000
    vertex 28.000000 28.000000 6.000000
  endloop
endfacet
facet normal 0.000000 0.000000 1.000000
  outer loop
    vertex -28.000000 -28.000000 6.000000
    vertex 28.000000 28.000000 6.000000
    vertex -28.000000 28.000000 6.000000
  endloop
endfacet
facet normal 0.000000 -1.000000 0.000000
  outer loop
    vertex -28.000000 -28.000000 0.000000
    vertex 28.000000 -28.000000 0.000000
    vertex 28.000000 -28.000000 6.000000
  endloop
endfacet
facet normal 0.000000 -1.000000 0.000000
  outer loop
    vertex -28.000000 -28.000000 0.000000
    vertex 28.000000 -28.000000 6.000000
    vertex -28.000000 -28.000000 6.000000
  endloop
endfacet
facet normal 1.000000 0.000000 0.000000
  outer loop
    vertex 28.000000 -28.000000 0.000000
    vertex 28.000000 28.000000 0.000000
    vertex 28.000000 28.000000 6.000000
  endloop
endfacet
facet normal 1.000000 0.000000 0.000000
  outer loop
    vertex 28.000000 -28.000000 0.000000
    vertex 28.000000 28.000000 6.000000
    vertex 28.000000 -28.000000 6.000000
  endloop
endfacet
facet normal 0.000000 1.000000 0.000000
  outer loop
    vertex 28.000000 28.000000 0.000000
    vertex -28.000000 28.000000 0.000000
    vertex -28.000000 28.000000 6.000000
  endloop
endfacet
facet normal 0.000000 1.000000 -0.000000
  outer loop
    vertex 28.000000 28.000000 0.000000
    vertex -28.000000 28.000000 6.000000
    vertex 28.000000 28.000000 6.000000
  endloop
endfacet
facet normal -1.000000 0.000000 0.000000
  outer loop
    vertex -28.000000 28.000000 0.000000
    vertex -28.000000 -28.000000 0.000000
    vertex -28.000000 -28.000000 6.000000
  endloop
endfacet
facet normal -1.000000 0.000000 0.000000
  outer loop
    vertex -28.000000 28.000000 0.000000
    vertex -28.000000 -28.000000 6.000000
    vertex -28.000000 28.000000 6.000000
  endloop
endfacet
facet normal 0.000000 0.000000 1.000000
  outer loop
    vertex 0.000000 0.000000 10.000000
    vertex 8.000000 0.000000 10.000000
    vertex 7.846282 1.560723 10.000000
  endloop
endfacet
facet normal 0.000000 0.000000 -1.000000
  outer loop
    vertex 0.000000 0.000000 6.000000
    vertex 7.846282 1.560723 6.000000
    vertex 8.000000 0.000000 6.000000
  endloop
endfacet
facet normal 0.995185 0.098017 0.000000
  outer loop
    vertex 8.000000 0.000000 6.000000
    vertex 7.846282 1.560723 6.000000
    vertex 7.846282 1.560723 10.000000
  endloop
endfacet
facet normal 0.995185 0.098017 -0.000000
  outer loop
    vertex 8.000000 0.000000 6.000000
    vertex 7.846282 1.560723 10.000000
    vertex 8.000000 0.000000 10.000000
  endloop
endfacet
facet normal 0.000000 0.000000 1.000000
  outer loop
    vertex 0.000000 0.000000 10.000000
    vertex 7.846282 1.560723 10.000000
    vertex 7.391036 3.061467 10.000000
  endloop
endfacet
facet normal 0.000000 0.000000 -1.000000
  outer loop
    vertex 0.000000 0.000000 6.000000
    vertex 7.391036 3.061467 6.000000
    vertex 7.846282 1.560723 6.000000
  endloop
endfacet
facet normal 0.956940 0.290285 0.000000
  outer loop
    vertex 7.846282 1.560723 6.000000
    vertex 7.391036 3.061467 6.000000
    vertex 7.391036 3.061467 10.000000
  endloop
endfacet
facet normal 0.956940 0.290285 -0.000000
  outer loop
    vertex 7.846282 1.560723 6.000000
    vertex 7.391036 3.061467 10.000000
    vertex 7.846282 1.560723 10.000000
  endloop
endfacet
facet normal 0.000000 0.000000 1.000000
  outer loop
    vertex 0.000000 0.000000 10.000000
    vertex 7.391036 3.061467 10.000000
    vertex 6.651757 4.444562 10.000000
  endloop
endfacet
facet normal 0.000000 0.000000 -1.000000
  outer loop
    vertex 0.000000 0.000000 6.000000
    vertex 6.651757 4.444562 6.000000
    vertex 7.391036 3.061467 6.000000
  endloop
endfacet
facet normal 0.881921 0.471397 0.000000
  outer loop
    vertex 7.391036 3.061467 6.000000
    vertex 6.651757 4.444562 6.000000
    vertex 6.651757 4.444562 10.000000
  endloop
endfacet
facet normal 0.881921 0.471397 -0.000000
  outer loop
    vertex 7.391036 3.061467 6.000000
    vertex 6.651757 4.444562 10.000000
    vertex 7.391036 3.061467 10.000000
  endloop
endfacet
facet normal 0.000000 0.000000 1.000000
  outer loop
    vertex 0.000000 0.000000 10.000000
    vertex 6.651757 4.444562 10.000000
    vertex 5.656854 5.656854 10.000000
  endloop
endfacet
facet normal 0.000000 0.000000 -1.000000
  outer loop
    vertex 0.000000 0.000000 6.000000
    vertex 5.656854 5.656854 6.000000
    vertex 6.651757 4.444562 6.000000
  endloop
endfacet
facet normal 0.773010 0.634393 0.000000
  outer loop
    vertex 6.651757 4.444562 6.000000
    vertex 5.656854 5.656854 6.000000
    vertex 5.656854 5.656854 10.000000
  endloop
endfacet
facet normal 0.773010 0.634393 -0.000000
  outer loop
    vertex 6.651757 4.444562 6.000000
    vertex 5.656854 5.656854 10.000000
    vertex 6.651757 4.444562 10.000000
  endloop
endfacet
facet normal 0.000000 0.000000 1.000000
  outer loop
    vertex 0.000000 0.000000 10.000000
    vertex 5.656854 5.656854 10.000000
    vertex 4.444562 6.651757 10.000000
  endloop
endfacet
facet normal 0.000000 0.000000 -1.000000
  outer loop
    vertex 0.000000 0.000000 6.000000
    vertex 4.444562 6.651757 6.000000
    vertex 5.656854 5.656854 6.000000
  endloop
endfacet
facet normal 0.634393 0.773010 0.000000
  outer loop
    vertex 5.656854 5.656854 6.000000
    vertex 4.444562 6.651757 6.000000
    vertex 4.444562 6.651757 10.000000
  endloop
endfacet
facet normal 0.634393 0.773010 -0.000000
  outer loop
    vertex 5.656854 5.656854 6.000000
    vertex 4.444562 6.651757 10.000000
    vertex 5.656854 5.656854 10.000000
  endloop
endfacet
facet normal 0.000000 0.000000 1.000000
  outer loop
    vertex 0.000000 0.000000 10.000000
    vertex 4.444562 6.651757 10.000000
    vertex 3.061467 7.391036 10.000000
  endloop
endfacet
facet normal 0.000000 0.000000 -1.000000
  outer loop
    vertex 0.000000 0.000000 6.000000
    vertex 3.061467 7.391036 6.000000
    vertex 4.444562 6.651757 6.000000
  endloop
endfacet
facet normal 0.471397 0.881921 0.000000
  outer loop
    vertex 4.444562 6.651757 6.000000
    vertex 3.061467 7.391036 6.000000
    vertex 3.061467 7.391036 10.000000
  endloop
endfacet
facet normal 0.471397 0.881921 -0.000000
  outer loop
    vertex 4.444562 6.651757 6.000000
    vertex 3.061467 7.391036 10.000000
    vertex 4.444562 6.651757 10.000000
  endloop
endfacet
facet normal 0.000000 0.000000 1.000000
  outer loop
    vertex 0.000000 0.000000 10.000000
    vertex 3.061467 7.391036 10.000000
    vertex 1.560723 7.846282 10.000000
  endloop
endfacet
facet normal 0.000000 0.000000 -1.000000
  outer loop
    vertex 0.000000 0.000000 6.000000
    vertex 1.560723 7.846282 6.000000
    vertex 3.061467 7.391036 6.000000
  endloop
endfacet
facet normal 0.290285 0.956940 0.000000
  outer loop
    vertex 3.061467 7.391036 6.000000
    vertex 1.560723 7.846282 6.000000
    vertex 1.560723 7.846282 10.000000
  endloop
endfacet
facet normal 0.290285 0.956940 -0.000000
  outer loop
    vertex 3.061467 7.391036 6.000000
    vertex 1.560723 7.846282 10.000000
    vertex 3.061467 7.391036 10.000000
  endloop
endfacet
facet normal 0.000000 0.000000 1.000000
  outer loop
    vertex 0.000000 0.000000 10.000000
    vertex 1.560723 7.846282 10.000000
    vertex 0.000000 8.000000 10.000000
  endloop
endfacet
facet normal 0.000000 0.000000 -1.000000
  outer loop
    vertex 0.000000 0.000000 6.000000
    vertex 0.000000 8.000000 6.000000
    vertex 1.560723 7.846282 6.000000
  endloop
endfacet
facet normal 0.098017 0.995185 0.000000
  outer loop
    vertex 1.560723 7.846282 6.000000
    vertex 0.000000 8.000000 6.000000
    vertex 0.000000 8.000000 10.000000
  endloop
endfacet
facet normal 0.098017 0.995185 -0.000000
  outer loop
    vertex 1.560723 7.846282 6.000000
    vertex 0.000000 8.000000 10.000000
    vertex 1.560723 7.846282 10.000000
  endloop
endfacet
facet normal 0.000000 -0.000000 1.000000
  outer loop
    vertex 0.000000 0.000000 10.000000
    vertex 0.000000 8.000000 10.000000
    vertex -1.560723 7.846282 10.000000
  endloop
endfacet
facet normal 0.000000 0.000000 -1.000000
  outer loop
    vertex 0.000000 0.000000 6.000000
    vertex -1.560723 7.846282 6.000000
    vertex 0.000000 8.000000 6.000000
  endloop
endfacet
facet normal -0.098017 0.995185 0.000000
  outer loop
    vertex 0.000000 8.000000 6.000000
    vertex -1.560723 7.846282 6.000000
    vertex -1.560723 7.846282 10.000000
  endloop
endfacet
facet normal -0.098017 0.995185 0.000000
  outer loop
    vertex 0.000000 8.000000 6.000000
    vertex -1.560723 7.846282 10.000000
    vertex 0.000000 8.000000 10.000000
  endloop
endfacet
facet normal 0.000000 0.000000 1.000000
  outer loop
    vertex 0.000000 0.000000 10.000000
    vertex -1.560723 7.846282 10.000000
    vertex -3.061467 7.391036 10.000000
  endloop
endfacet
facet normal 0.000000 0.000000 -1.000000
  outer loop
    vertex 0.000000 0.000000 6.000000
    vertex -3.061467 7.391036 6.000000
    vertex -1.560723 7.846282 6.000000
  endloop
endfacet
facet normal -0.290285 0.956940 0.000000
  outer loop
    vertex -1.560723 7.846282 6.000000
    vertex -3.061467 7.391036 6.000000
    vertex -3.061467 7.391036 10.000000
  endloop
endfacet
facet normal -0.290285 0.956940 0.000000
  outer loop
    vertex -1.560723 7.846282 6.000000
    vertex -3.061467 7.391036 10.000000
    vertex -1.560723 7.846282 10.000000
  endloop
endfacet
facet normal 0.000000 0.000000 1.000000
  outer loop
    vertex 0.000000 0.000000 10.000000
    vertex -3.061467 7.391036 10.000000
    vertex -4.444562 6.651757 10.000000
  endloop
endfacet
facet normal 0.000000 0.000000 -1.000000
  outer loop
    vertex 0.000000 0.000000 6.000000
    vertex -4.444562 6.651757 6.000000
    vertex -3.061467 7.391036 6.000000
  endloop
endfacet
facet normal -0.471397 0.881921 0.000000
  outer loop
    vertex -3.061467 7.391036 6.000000
    vertex -4.444562 6.651757 6.000000
    vertex -4.444562 6.651757 10.000000
  endloop
endfacet
facet normal -0.471397 0.881921 0.000000
  outer loop
    vertex -3.061467 7.391036 6.000000
    vertex -4.444562 6.651757 10.000000
    vertex -3.061467 7.391036 10.000000
  endloop
endfacet
facet normal 0.000000 0.000000 1.000000
  outer loop
    vertex 0.000000 0.000000 10.000000
    vertex -4.444562 6.651757 10.000000
    vertex -5.656854 5.656854 10.000000
  endloop
endfacet
facet normal 0.000000 0.000000 -1.000000
  outer loop
    vertex 0.000000 0.000000 6.000000
    vertex -5.656854 5.656854 6.000000
    vertex -4.444562 6.651757 6.000000
  endloop
endfacet
facet normal -0.634393 0.773010 0.000000
  outer loop
    vertex -4.444562 6.651757 6.000000
    vertex -5.656854 5.656854 6.000000
    vertex -5.656854 5.656854 10.000000
  endloop
endfacet
facet normal -0.634393 0.773010 0.000000
  outer loop
    vertex -4.444562 6.651757 6.000000
    vertex -5.656854 5.656854 10.000000
    vertex -4.444562 6.651757 10.000000
  endloop
endfacet
facet normal 0.000000 0.000000 1.000000
  outer loop
    vertex 0.000000 0.000000 10.000000
    vertex -5.656854 5.656854 10.000000
    vertex -6.651757 4.444562 10.000000
  endloop
endfacet
facet normal 0.000000 0.000000 -1.000000
  outer loop
    vertex 0.000000 0.000000 6.000000
    vertex -6.651757 4.444562 6.000000
    vertex -5.656854 5.656854 6.000000
  endloop
endfacet
facet normal -0.773010 0.634393 0.000000
  outer loop
    vertex -5.656854 5.656854 6.000000
    vertex -6.651757 4.444562 6.000000
    vertex -6.651757 4.444562 10.000000
  endloop
endfacet
facet normal -0.773010 0.634393 0.000000
  outer loop
    vertex -5.656854 5.656854 6.000000
    vertex -6.651757 4.444562 10.000000
    vertex -5.656854 5.656854 10.000000
  endloop
endfacet
facet normal 0.000000 0.000000 1.000000
  outer loop
    vertex 0.000000 0.000000 10.000000
    vertex -6.651757 4.444562 10.000000
    vertex -7.391036 3.061467 10.000000
  endloop
endfacet
facet normal 0.000000 0.000000 -1.000000
  outer loop
    vertex 0.000000 0.000000 6.000000
    vertex -7.391036 3.061467 6.000000
    vertex -6.651757 4.444562 6.000000
  endloop
endfacet
facet normal -0.881921 0.471397 0.000000
  outer loop
    vertex -6.651757 4.444562 6.000000
    vertex -7.391036 3.061467 6.000000
    vertex -7.391036 3.061467 10.000000
  endloop
endfacet
facet normal -0.881921 0.471397 0.000000
  outer loop
    vertex -6.651757 4.444562 6.000000
    vertex -7.391036 3.061467 10.000000
    vertex -6.651757 4.444562 10.000000
  endloop
endfacet
facet normal 0.000000 0.000000 1.000000
  outer loop
    vertex 0.000000 0.000000 10.000000
    vertex -7.391036 3.061467 10.000000
    vertex -7.846282 1.560723 10.000000
  endloop
endfacet
facet normal 0.000000 0.000000 -1.000000
  outer loop
    vertex 0.000000 0.000000 6.000000
    vertex -7.846282 1.560723 6.000000
    vertex -7.391036 3.061467 6.000000
  endloop
endfacet
facet normal -0.956940 0.290285 0.000000
  outer loop
    vertex -7.391036 3.061467 6.000000
    vertex -7.846282 1.560723 6.000000
    vertex -7.846282 1.560723 10.000000
  endloop
endfacet
facet normal -0.956940 0.290285 0.000000
  outer loop
    vertex -7.391036 3.061467 6.000000
    vertex -7.846282 1.560723 10.000000
    vertex -7.391036 3.061467 10.000000
  endloop
endfacet
facet normal 0.000000 0.000000 1.000000
  outer loop
    vertex 0.000000 0.000000 10.000000
    vertex -7.846282 1.560723 10.000000
    vertex -8.000000 0.000000 10.000000
  endloop
endfacet
facet normal 0.000000 0.000000 -1.000000
  outer loop
    vertex 0.000000 0.000000 6.000000
    vertex -8.000000 0.000000 6.000000
    vertex -7.846282 1.560723 6.000000
  endloop
endfacet
facet normal -0.995185 0.098017 0.000000
  outer loop
    vertex -7.846282 1.560723 6.000000
    vertex -8.000000 0.000000 6.000000
    vertex -8.000000 0.000000 10.000000
  endloop
endfacet
facet normal -0.995185 0.098017 0.000000
  outer loop
    vertex -7.846282 1.560723 6.000000
    vertex -8.000000 0.000000 10.000000
    vertex -7.846282 1.560723 10.000000
  endloop
endfacet
facet normal 0.000000 0.000000 1.000000
  outer loop
    vertex 0.000000 0.000000 10.000000
    vertex -8.000000 0.000000 10.000000
    vertex -7.846282 -1.560723 10.000000
  endloop
endfacet
facet normal -0.000000 0.000000 -1.000000
  outer loop
    vertex 0.000000 0.000000 6.000000
    vertex -7.846282 -1.560723 6.000000
    vertex -8.000000 0.000000 6.000000
  endloop
endfacet
facet normal -0.995185 -0.098017 0.000000
  outer loop
    vertex -8.000000 0.000000 6.000000
    vertex -7.846282 -1.560723 6.000000
    vertex -7.846282 -1.560723 10.000000
  endloop
endfacet
facet normal -0.995185 -0.098017 0.000000
  outer loop
    vertex -8.000000 0.000000 6.000000
    vertex -7.846282 -1.560723 10.000000
    vertex -8.000000 0.000000 10.000000
  endloop
endfacet
facet normal 0.000000 0.000000 1.000000
  outer loop
    vertex 0.000000 0.000000 10.000000
    vertex -7.846282 -1.560723 10.000000
    vertex -7.391036 -3.061467 10.000000
  endloop
endfacet
facet normal 0.000000 0.000000 -1.000000
  outer loop
    vertex 0.000000 0.000000 6.000000
    vertex -7.391036 -3.061467 6.000000
    vertex -7.846282 -1.560723 6.000000
  endloop
endfacet
facet normal -0.956940 -0.290285 0.000000
  outer loop
    vertex -7.846282 -1.560723 6.000000
    vertex -7.391036 -3.061467 6.000000
    vertex -7.391036 -3.061467 10.000000
  endloop
endfacet
facet normal -0.956940 -0.290285 0.000000
  outer loop
    vertex -7.846282 -1.560723 6.000000
    vertex -7.391036 -3.061467 10.000000
    vertex -7.846282 -1.560723 10.000000
  endloop
endfacet
facet normal 0.000000 0.000000 1.000000
  outer loop
    vertex 0.000000 0.000000 10.000000
    vertex -7.391036 -3.061467 10.000000
    vertex -6.651757 -4.444562 10.000000
  endloop
endfacet
facet normal 0.000000 0.000000 -1.000000
  outer loop
    vertex 0.000000 0.000000 6.000000
    vertex -6.651757 -4.444562 6.000000
    vertex -7.391036 -3.061467 6.000000
  endloop
endfacet
facet normal -0.881921 -0.471397 0.000000
  outer loop
    vertex -7.391036 -3.061467 6.000000
    vertex -6.651757 -4.444562 6.000000
    vertex -6.651757 -4.444562 10.000000
  endloop
endfacet
facet normal -0.881921 -0.471397 0.000000
  outer loop
    vertex -7.391036 -3.061467 6.000000
    vertex -6.651757 -4.444562 10.000000
    vertex -7.391036 -3.061467 10.000000
  endloop
endfacet
facet normal 0.000000 0.000000 1.000000
  outer loop
    vertex 0.000000 0.000000 10.000000
    vertex -6.651757 -4.444562 10.000000
    vertex -5.656854 -5.656854 10.000000
  endloop
endfacet
facet normal 0.000000 0.000000 -1.000000
  outer loop
    vertex 0.000000 0.000000 6.000000
    vertex -5.656854 -5.656854 6.000000
    vertex -6.651757 -4.444562 6.000000
  endloop
endfacet
facet normal -0.773010 -0.634393 0.000000
  outer loop
    vertex -6.651757 -4.444562 6.000000
    vertex -5.656854 -5.656854 6.000000
    vertex -5.656854 -5.656854 10.000000
  endloop
endfacet
facet normal -0.773010 -0.634393 0.000000
  outer loop
    vertex -6.651757 -4.444562 6.000000
    vertex -5.656854 -5.656854 10.000000
    vertex -6.651757 -4.444562 10.000000
  endloop
endfacet
facet normal 0.000000 0.000000 1.000000
  outer loop
    vertex 0.000000 0.000000 10.000000
    vertex -5.656854 -5.656854 10.000000
    vertex -4.444562 -6.651757 10.000000
  endloop
endfacet
facet normal 0.000000 0.000000 -1.000000
  outer loop
    vertex 0.000000 0.000000 6.000000
    vertex -4.444562 -6.651757 6.000000
    vertex -5.656854 -5.656854 6.000000
  endloop
endfacet
facet normal -0.634393 -0.773010 0.000000
  outer loop
    vertex -5.656854 -5.656854 6.000000
    vertex -4.444562 -6.651757 6.000000
    vertex -4.444562 -6.651757 10.000000
  endloop
endfacet
facet normal -0.634393 -0.773010 0.000000
  outer loop
    vertex -5.656854 -5.656854 6.000000
    vertex -4.444562 -6.651757 10.000000
    vertex -5.656854 -5.656854 10.000000
  endloop
endfacet
facet normal 0.000000 0.000000 1.000000
  outer loop
    vertex 0.000000 0.000000 10.000000
    vertex -4.444562 -6.651757 10.000000
    vertex -3.061467 -7.391036 10.000000
  endloop
endfacet
facet normal 0.000000 0.000000 -1.000000
  outer loop
    vertex 0.000000 0.000000 6.000000
    vertex -3.061467 -7.391036 6.000000
    vertex -4.444562 -6.651757 6.000000
  endloop
endfacet
facet normal -0.471397 -0.881921 0.000000
  outer loop
    vertex -4.444562 -6.651757 6.000000
    vertex -3.061467 -7.391036 6.000000
    vertex -3.061467 -7.391036 10.000000
  endloop
endfacet
facet normal -0.471397 -0.881921 0.000000
  outer loop
    vertex -4.444562 -6.651757 6.000000
    vertex -3.061467 -7.391036 10.000000
    vertex -4.444562 -6.651757 10.000000
  endloop
endfacet
facet normal 0.000000 0.000000 1.000000
  outer loop
    vertex 0.000000 0.000000 10.000000
    vertex -3.061467 -7.391036 10.000000
    vertex -1.560723 -7.846282 10.000000
  endloop
endfacet
facet normal 0.000000 0.000000 -1.000000
  outer loop
    vertex 0.000000 0.000000 6.000000
    vertex -1.560723 -7.846282 6.000000
    vertex -3.061467 -7.391036 6.000000
  endloop
endfacet
facet normal -0.290285 -0.956940 0.000000
  outer loop
    vertex -3.061467 -7.391036 6.000000
    vertex -1.560723 -7.846282 6.000000
    vertex -1.560723 -7.846282 10.000000
  endloop
endfacet
facet normal -0.290285 -0.956940 0.000000
  outer loop
    vertex -3.061467 -7.391036 6.000000
    vertex -1.560723 -7.846282 10.000000
    vertex -3.061467 -7.391036 10.000000
  endloop
endfacet
facet normal 0.000000 0.000000 1.000000
  outer loop
    vertex 0.000000 0.000000 10.000000
    vertex -1.560723 -7.846282 10.000000
    vertex -0.000000 -8.000000 10.000000
  endloop
endfacet
facet normal 0.000000 0.000000 -1.000000
  outer loop
    vertex 0.000000 0.000000 6.000000
    vertex -0.000000 -8.000000 6.000000
    vertex -1.560723 -7.846282 6.000000
  endloop
endfacet
facet normal -0.098017 -0.995185 0.000000
  outer loop
    vertex -1.560723 -7.846282 6.000000
    vertex -0.000000 -8.000000 6.000000
    vertex -0.000000 -8.000000 10.000000
  endloop
endfacet
facet normal -0.098017 -0.995185 0.000000
  outer loop
    vertex -1.560723 -7.846282 6.000000
    vertex -0.000000 -8.000000 10.000000
    vertex -1.560723 -7.846282 10.000000
  endloop
endfacet
facet normal 0.000000 0.000000 1.000000
  outer loop
    vertex 0.000000 0.000000 10.000000
    vertex -0.000000 -8.000000 10.000000
    vertex 1.560723 -7.846282 10.000000
  endloop
endfacet
facet normal 0.000000 -0.000000 -1.000000
  outer loop
    vertex 0.000000 0.000000 6.000000
    vertex 1.560723 -7.846282 6.000000
    vertex -0.000000 -8.000000 6.000000
  endloop
endfacet
facet normal 0.098017 -0.995185 0.000000
  outer loop
    vertex -0.000000 -8.000000 6.000000
    vertex 1.560723 -7.846282 6.000000
    vertex 1.560723 -7.846282 10.000000
  endloop
endfacet
facet normal 0.098017 -0.995185 0.000000
  outer loop
    vertex -0.000000 -8.000000 6.000000
    vertex 1.560723 -7.846282 10.000000
    vertex -0.000000 -8.000000 10.000000
  endloop
endfacet
facet normal 0.000000 0.000000 1.000000
  outer loop
    vertex 0.000000 0.000000 10.000000
    vertex 1.560723 -7.846282 10.000000
    vertex 3.061467 -7.391036 10.000000
  endloop
endfacet
facet normal 0.000000 0.000000 -1.000000
  outer loop
    vertex 0.000000 0.000000 6.000000
    vertex 3.061467 -7.391036 6.000000
    vertex 1.560723 -7.846282 6.000000
  endloop
endfacet
facet normal 0.290285 -0.956940 0.000000
  outer loop
    vertex 1.560723 -7.846282 6.000000
    vertex 3.061467 -7.391036 6.000000
    vertex 3.061467 -7.391036 10.000000
  endloop
endfacet
facet normal 0.290285 -0.956940 0.000000
  outer loop
    vertex 1.560723 -7.846282 6.000000
    vertex 3.061467 -7.391036 10.000000
    vertex 1.560723 -7.846282 10.000000
  endloop
endfacet
facet normal 0.000000 0.000000 1.000000
  outer loop
    vertex 0.000000 0.000000 10.000000
    vertex 3.061467 -7.391036 10.000000
    vertex 4.444562 -6.651757 10.000000
  endloop
endfacet
facet normal 0.000000 0.000000 -1.000000
  outer loop
    vertex 0.000000 0.000000 6.000000
    vertex 4.444562 -6.651757 6.000000
    vertex 3.061467 -7.391036 6.000000
  endloop
endfacet
facet normal 0.471397 -0.881921 0.000000
  outer loop
    vertex 3.061467 -7.391036 6.000000
    vertex 4.444562 -6.651757 6.000000
    vertex 4.444562 -6.651757 10.000000
  endloop
endfacet
facet normal 0.471397 -0.881921 0.000000
  outer loop
    vertex 3.061467 -7.391036 6.000000
    vertex 4.444562 -6.651757 10.000000
    vertex 3.061467 -7.391036 10.000000
  endloop
endfacet
facet normal 0.000000 0.000000 1.000000
  outer loop
    vertex 0.000000 0.000000 10.000000
    vertex 4.444562 -6.651757 10.000000
    vertex 5.656854 -5.656854 10.000000
  endloop
endfacet
facet normal 0.000000 0.000000 -1.000000
  outer loop
    vertex 0.000000 0.000000 6.000000
    vertex 5.656854 -5.656854 6.000000
    vertex 4.444562 -6.651757 6.000000
  endloop
endfacet
facet normal 0.634393 -0.773010 0.000000
  outer loop
    vertex 4.444562 -6.651757 6.000000
    vertex 5.656854 -5.656854 6.000000
    vertex 5.656854 -5.656854 10.000000
  endloop
endfacet
facet normal 0.634393 -0.773010 0.000000
  outer loop
    vertex 4.444562 -6.651757 6.000000
    vertex 5.656854 -5.656854 10.000000
    vertex 4.444562 -6.651757 10.000000
  endloop
endfacet
facet normal 0.000000 0.000000 1.000000
  outer loop
    vertex 0.000000 0.000000 10.000000
    vertex 5.656854 -5.656854 10.000000
    vertex 6.651757 -4.444562 10.000000
  endloop
endfacet
facet normal 0.000000 0.000000 -1.000000
  outer loop
    vertex 0.000000 0.000000 6.000000
    vertex 6.651757 -4.444562 6.000000
    vertex 5.656854 -5.656854 6.000000
  endloop
endfacet
facet normal 0.773010 -0.634393 0.000000
  outer loop
    vertex 5.656854 -5.656854 6.000000
    vertex 6.651757 -4.444562 6.000000
    vertex 6.651757 -4.444562 10.000000
  endloop
endfacet
facet normal 0.773010 -0.634393 0.000000
  outer loop
    vertex 5.656854 -5.656854 6.000000
    vertex 6.651757 -4.444562 10.000000
    vertex 5.656854 -5.656854 10.000000
  endloop
endfacet
facet normal 0.000000 0.000000 1.000000
  outer loop
    vertex 0.000000 0.000000 10.000000
    vertex 6.651757 -4.444562 10.000000
    vertex 7.391036 -3.061467 10.000000
  endloop
endfacet
facet normal 0.000000 0.000000 -1.000000
  outer loop
    vertex 0.000000 0.000000 6.000000
    vertex 7.391036 -3.061467 6.000000
    vertex 6.651757 -4.444562 6.000000
  endloop
endfacet
facet normal 0.881921 -0.471397 0.000000
  outer loop
    vertex 6.651757 -4.444562 6.000000
    vertex 7.391036 -3.061467 6.000000
    vertex 7.391036 -3.061467 10.000000
  endloop
endfacet
facet normal 0.881921 -0.471397 0.000000
  outer loop
    vertex 6.651757 -4.444562 6.000000
    vertex 7.391036 -3.061467 10.000000
    vertex 6.651757 -4.444562 10.000000
  endloop
endfacet
facet normal 0.000000 0.000000 1.000000
  outer loop
    vertex 0.000000 0.000000 10.000000
    vertex 7.391036 -3.061467 10.000000
    vertex 7.846282 -1.560723 10.000000
  endloop
endfacet
facet normal 0.000000 0.000000 -1.000000
  outer loop
    vertex 0.000000 0.000000 6.000000
    vertex 7.846282 -1.560723 6.000000
    vertex 7.391036 -3.061467 6.000000
  endloop
endfacet
facet normal 0.956940 -0.290285 0.000000
  outer loop
    vertex 7.391036 -3.061467 6.000000
    vertex 7.846282 -1.560723 6.000000
    vertex 7.846282 -1.560723 10.000000
  endloop
endfacet
facet normal 0.956940 -0.290285 0.000000
  outer loop
    vertex 7.391036 -3.061467 6.000000
    vertex 7.846282 -1.560723 10.000000
    vertex 7.391036 -3.061467 10.000000
  endloop
endfacet
facet normal 0.000000 0.000000 1.000000
  outer loop
    vertex 0.000000 0.000000 10.000000
    vertex 7.846282 -1.560723 10.000000
    vertex 8.000000 -0.000000 10.000000
  endloop
endfacet
facet normal 0.000000 0.000000 -1.000000
  outer loop
    vertex 0.000000 0.000000 6.000000
    vertex 8.000000 -0.000000 6.000000
    vertex 7.846282 -1.560723 6.000000
  endloop
endfacet
facet normal 0.995185 -0.098017 0.000000
  outer loop
    vertex 7.846282 -1.560723 6.000000
    vertex 8.000000 -0.000000 6.000000
    vertex 8.000000 -0.000000 10.000000
  endloop
endfacet
facet normal 0.995185 -0.098017 0.000000
  outer loop
    vertex 7.846282 -1.560723 6.000000
    vertex 8.000000 -0.000000 10.000000
    vertex 7.846282 -1.560723 10.000000
  endloop
endfacet
endsolid printed_v3
