solid modular_shaft
facet normal 0.000000 1.000000 0.000000
  outer loop
    vertex 5.400000 5.400000 0.000000
    vertex -5.400000 5.400000 0.000000
    vertex -5.400000 5.400000 1.000000
  endloop
endfacet
facet normal 0.000000 1.000000 0.000000
  outer loop
    vertex 5.400000 5.400000 0.000000
    vertex -5.400000 5.400000 1.000000
    vertex 5.400000 5.400000 1.000000
  endloop
endfacet
facet normal -1.000000 0.000000 0.000000
  outer loop
    vertex -5.400000 5.400000 0.000000
    vertex -5.400000 -5.400000 0.000000
    vertex -5.400000 -5.400000 1.000000
  endloop
endfacet
facet normal -1.000000 0.000000 0.000000
  outer loop
    vertex -5.400000 5.400000 0.000000
    vertex -5.400000 -5.400000 1.000000
    vertex -5.400000 5.400000 1.000000
  endloop
endfacet
facet normal 0.000000 -1.000000 0.000000
  outer loop
    vertex -5.400000 -5.400000 0.000000
    vertex 5.400000 -5.400000 0.000000
    vertex 5.400000 -5.400000 1.000000
  endloop
endfacet
facet normal 0.000000 -1.000000 0.000000
  outer loop
    vertex -5.400000 -5.400000 0.000000
    vertex 5.400000 -5.400000 1.000000
    vertex -5.400000 -5.400000 1.000000
  endloop
endfacet
facet normal 1.000000 0.000000 0.000000
  outer loop
    vertex 5.400000 -5.400000 0.000000
    vertex 5.400000 5.400000 0.000000
    vertex 5.400000 5.400000 1.000000
  endloop
endfacet
facet normal 1.000000 0.000000 0.000000
  outer loop
    vertex 5.400000 -5.400000 0.000000
    vertex 5.400000 5.400000 1.000000
    vertex 5.400000 -5.400000 1.000000
  endloop
endfacet
facet normal 0.000000 1.000000 0.000000
  outer loop
    vertex 5.400000 5.400000 1.000000
    vertex -5.400000 5.400000 1.000000
    vertex -5.400000 5.400000 2.000000
  endloop
endfacet
facet normal 0.000000 1.000000 0.000000
  outer loop
    vertex 5.400000 5.400000 1.000000
    vertex -5.400000 5.400000 2.000000
    vertex 5.400000 5.400000 2.000000
  endloop
endfacet
facet normal -1.000000 0.000000 0.000000
  outer loop
    vertex -5.400000 5.400000 1.000000
    vertex -5.400000 -5.400000 1.000000
    vertex -5.400000 -5.400000 2.000000
  endloop
endfacet
facet normal -1.000000 0.000000 0.000000
  outer loop
    vertex -5.400000 5.400000 1.000000
    vertex -5.400000 -5.400000 2.000000
    vertex -5.400000 5.400000 2.000000
  endloop
endfacet
facet normal 0.000000 -1.000000 0.000000
  outer loop
    vertex -5.400000 -5.400000 1.000000
    vertex 5.400000 -5.400000 1.000000
    vertex 5.400000 -5.400000 2.000000
  endloop
endfacet
facet normal 0.000000 -1.000000 0.000000
  outer loop
    vertex -5.400000 -5.400000 1.000000
    vertex 5.400000 -5.400000 2.000000
    vertex -5.400000 -5.400000 2.000000
  endloop
endfacet
facet normal 1.000000 0.000000 0.000000
  outer loop
    vertex 5.400000 -5.400000 1.000000
    vertex 5.400000 5.400000 1.000000
    vertex 5.400000 5.400000 2.000000
  endloop
endfacet
facet normal 1.000000 0.000000 0.000000
  outer loop
    vertex 5.400000 -5.400000 1.000000
    vertex 5.400000 5.400000 2.000000
    vertex 5.400000 -5.400000 2.000000
  endloop
endfacet
facet normal 0.000000 1.000000 0.000000
  outer loop
    vertex 5.400000 5.400000 2.000000
    vertex -5.400000 5.400000 2.000000
    vertex -5.400000 5.400000 3.000000
  endloop
endfacet
facet normal 0.000000 1.000000 0.000000
  outer loop
    vertex 5.400000 5.400000 2.000000
    vertex -5.400000 5.400000 3.000000
    vertex 5.400000 5.400000 3.000000
  endloop
endfacet
facet normal -1.000000 0.000000 0.000000
  outer loop
    vertex -5.400000 5.400000 2.000000
    vertex -5.400000 -5.400000 2.000000
    vertex -5.400000 -5.400000 3.000000
  endloop
endfacet
facet normal -1.000000 0.000000 0.000000
  outer loop
    vertex -5.400000 5.400000 2.000000
    vertex -5.400000 -5.400000 3.000000
    vertex -5.400000 5.400000 3.000000
  endloop
endfacet
facet normal 0.000000 -1.000000 0.000000
  outer loop
    vertex -5.400000 -5.400000 2.000000
    vertex 5.400000 -5.400000 2.000000
    vertex 5.400000 -5.400000 3.000000
  endloop
endfacet
facet normal 0.000000 -1.000000 0.000000
  outer loop
    vertex -5.400000 -5.400000 2.000000
    vertex 5.400000 -5.400000 3.000000
    vertex -5.400000 -5.400000 3.000000
  endloop
endfacet
facet normal 1.000000 0.000000 0.000000
  outer loop
    vertex 5.400000 -5.400000 2.000000
    vertex 5.400000 5.400000 2.000000
    vertex 5.400000 5.400000 3.000000
  endloop
endfacet
facet normal 1.000000 0.000000 0.000000
  outer loop
    vertex 5.400000 -5.400000 2.000000
    vertex 5.400000 5.400000 3.000000
    vertex 5.400000 -5.400000 3.000000
  endloop
endfacet
facet normal 0.000000 1.000000 0.000000
  outer loop
    vertex 5.400000 5.400000 3.000000
    vertex -5.400000 5.400000 3.000000
    vertex -5.400000 5.400000 4.000000
  endloop
endfacet
facet normal 0.000000 1.000000 0.000000
  outer loop
    vertex 5.400000 5.400000 3.000000
    vertex -5.400000 5.400000 4.000000
    vertex 5.400000 5.400000 4.000000
  endloop
endfacet
facet normal -1.000000 0.000000 0.000000
  outer loop
    vertex -5.400000 5.400000 3.000000
    vertex -5.400000 -5.400000 3.000000
    vertex -5.400000 -5.400000 4.000000
  endloop
endfacet
facet normal -1.000000 0.000000 0.000000
  outer loop
    vertex -5.400000 5.400000 3.000000
    vertex -5.400000 -5.400000 4.000000
    vertex -5.400000 5.400000 4.000000
  endloop
endfacet
facet normal 0.000000 -1.000000 0.000000
  outer loop
    vertex -5.400000 -5.400000 3.000000
    vertex 5.400000 -5.400000 3.000000
    vertex 5.400000 -5.400000 4.000000
  endloop
endfacet
facet normal 0.000000 -1.000000 0.000000
  outer loop
    vertex -5.400000 -5.400000 3.000000
    vertex 5.400000 -5.400000 4.000000
    vertex -5.400000 -5.400000 4.000000
  endloop
endfacet
facet normal 1.000000 0.000000 0.000000
  outer loop
    vertex 5.400000 -5.400000 3.000000
    vertex 5.400000 5.400000 3.000000
    vertex 5.400000 5.400000 4.000000
  endloop
endfacet
facet normal 1.000000 0.000000 0.000000
  outer loop
    vertex 5.400000 -5.400000 3.000000
    vertex 5.400000 5.400000 4.000000
    vertex 5.400000 -5.400000 4.000000
  endloop
endfacet
facet normal 0.000000 1.000000 0.000000
  outer loop
    vertex 5.400000 5.400000 4.000000
    vertex -5.400000 5.400000 4.000000
    vertex -5.400000 5.400000 5.000000
  endloop
endfacet
facet normal 0.000000 1.000000 0.000000
  outer loop
    vertex 5.400000 5.400000 4.000000
    vertex -5.400000 5.400000 5.000000
    vertex 5.400000 5.400000 5.000000
  endloop
endfacet
facet normal -1.000000 0.000000 0.000000
  outer loop
    vertex -5.400000 5.400000 4.000000
    vertex -5.400000 -5.400000 4.000000
    vertex -5.400000 -5.400000 5.000000
  endloop
endfacet
facet normal -1.000000 0.000000 0.000000
  outer loop
    vertex -5.400000 5.400000 4.000000
    vertex -5.400000 -5.400000 5.000000
    vertex -5.400000 5.400000 5.000000
  endloop
endfacet
facet normal 0.000000 -1.000000 0.000000
  outer loop
    vertex -5.400000 -5.400000 4.000000
    vertex 5.400000 -5.400000 4.000000
    vertex 5.400000 -5.400000 5.000000
  endloop
endfacet
facet normal 0.000000 -1.000000 0.000000
  outer loop
    vertex -5.400000 -5.400000 4.000000
    vertex 5.400000 -5.400000 5.000000
    vertex -5.400000 -5.400000 5.000000
  endloop
endfacet
facet normal 1.000000 0.000000 0.000000
  outer loop
    vertex 5.400000 -5.400000 4.000000
    vertex 5.400000 5.400000 4.000000
    vertex 5.400000 5.400000 5.000000
  endloop
endfacet
facet normal 1.000000 0.000000 0.000000
  outer loop
    vertex 5.400000 -5.400000 4.000000
    vertex 5.400000 5.400000 5.000000
    vertex 5.400000 -5.400000 5.000000
  endloop
endfacet
facet normal 0.000000 1.000000 0.000000
  outer loop
    vertex 5.400000 5.400000 5.000000
    vertex -5.400000 5.400000 5.000000
    vertex -5.400000 5.400000 6.000000
  endloop
endfacet
facet normal 0.000000 1.000000 0.000000
  outer loop
    vertex 5.400000 5.400000 5.000000
    vertex -5.400000 5.400000 6.000000
    vertex 5.400000 5.400000 6.000000
  endloop
endfacet
facet normal -1.000000 0.000000 0.000000
  outer loop
    vertex -5.400000 5.400000 5.000000
    vertex -5.400000 -5.400000 5.000000
    vertex -5.400000 -5.400000 6.000000
  endloop
endfacet
facet normal -1.000000 0.000000 0.000000
  outer loop
    vertex -5.400000 5.400000 5.000000
    vertex -5.400000 -5.400000 6.000000
    vertex -5.400000 5.400000 6.000000
  endloop
endfacet
facet normal 0.000000 -1.000000 0.000000
  outer loop
    vertex -5.400000 -5.400000 5.000000
    vertex 5.400000 -5.400000 5.000000
    vertex 5.400000 -5.400000 6.000000
  endloop
endfacet
facet normal 0.000000 -1.000000 0.000000
  outer loop
    vertex -5.400000 -5.400000 5.000000
    vertex 5.400000 -5.400000 6.000000
    vertex -5.400000 -5.400000 6.000000
  endloop
endfacet
facet normal 1.000000 0.000000 0.000000
  outer loop
    vertex 5.400000 -5.400000 5.000000
    vertex 5.400000 5.400000 5.000000
    vertex 5.400000 5.400000 6.000000
  endloop
endfacet
facet normal 1.000000 0.000000 0.000000
  outer loop
    vertex 5.400000 -5.400000 5.000000
    vertex 5.400000 5.400000 6.000000
    vertex 5.400000 -5.400000 6.000000
  endloop
endfacet
facet normal 0.000000 1.000000 0.000000
  outer loop
    vertex 5.400000 5.400000 6.000000
    vertex -5.400000 5.400000 6.000000
    vertex -5.400000 5.400000 7.000000
  endloop
endfacet
facet normal 0.000000 1.000000 0.000000
  outer loop
    vertex 5.400000 5.400000 6.000000
    vertex -5.400000 5.400000 7.000000
    vertex 5.400000 5.400000 7.000000
  endloop
endfacet
facet normal -1.000000 0.000000 0.000000
  outer loop
    vertex -5.400000 5.400000 6.000000
    vertex -5.400000 -5.400000 6.000000
    vertex -5.400000 -5.400000 7.000000
  endloop
endfacet
facet normal -1.000000 0.000000 0.000000
  outer loop
    vertex -5.400000 5.400000 6.000000
    vertex -5.400000 -5.400000 7.000000
    vertex -5.400000 5.400000 7.000000
  endloop
endfacet
facet normal 0.000000 -1.000000 0.000000
  outer loop
    vertex -5.400000 -5.400000 6.000000
    vertex 5.400000 -5.400000 6.000000
    vertex 5.400000 -5.400000 7.000000
  endloop
endfacet
facet normal 0.000000 -1.000000 0.000000
  outer loop
    vertex -5.400000 -5.400000 6.000000
    vertex 5.400000 -5.400000 7.000000
    vertex -5.400000 -5.400000 7.000000
  endloop
endfacet
facet normal 1.000000 0.000000 0.000000
  outer loop
    vertex 5.400000 -5.400000 6.000000
    vertex 5.400000 5.400000 6.000000
    vertex 5.400000 5.400000 7.000000
  endloop
endfacet
facet normal 1.000000 0.000000 0.000000
  outer loop
    vertex 5.400000 -5.400000 6.000000
    vertex 5.400000 5.400000 7.000000
    vertex 5.400000 -5.400000 7.000000
  endloop
endfacet
facet normal 0.000000 1.000000 0.000000
  outer loop
    vertex 5.400000 5.400000 7.000000
    vertex -5.400000 5.400000 7.000000
    vertex -5.400000 5.400000 8.000000
  endloop
endfacet
facet normal 0.000000 1.000000 0.000000
  outer loop
    vertex 5.400000 5.400000 7.000000
    vertex -5.400000 5.400000 8.000000
    vertex 5.400000 5.400000 8.000000
  endloop
endfacet
facet normal -1.000000 0.000000 0.000000
  outer loop
    vertex -5.400000 5.400000 7.000000
    vertex -5.400000 -5.400000 7.000000
    vertex -5.400000 -5.400000 8.000000
  endloop
endfacet
facet normal -1.000000 0.000000 0.000000
  outer loop
    vertex -5.400000 5.400000 7.000000
    vertex -5.400000 -5.400000 8.000000
    vertex -5.400000 5.400000 8.000000
  endloop
endfacet
facet normal 0.000000 -1.000000 0.000000
  outer loop
    vertex -5.400000 -5.400000 7.000000
    vertex 5.400000 -5.400000 7.000000
    vertex 5.400000 -5.400000 8.000000
  endloop
endfacet
facet normal 0.000000 -1.000000 0.000000
  outer loop
    vertex -5.400000 -5.400000 7.000000
    vertex 5.400000 -5.400000 8.000000
    vertex -5.400000 -5.400000 8.000000
  endloop
endfacet
facet normal 1.000000 0.000000 0.000000
  outer loop
    vertex 5.400000 -5.400000 7.000000
    vertex 5.400000 5.400000 7.000000
    vertex 5.400000 5.400000 8.000000
  endloop
endfacet
facet normal 1.000000 0.000000 0.000000
  outer loop
    vertex 5.400000 -5.400000 7.000000
    vertex 5.400000 5.400000 8.000000
    vertex 5.400000 -5.400000 8.000000
  endloop
endfacet
facet normal 0.000000 1.000000 0.000000
  outer loop
    vertex 5.400000 5.400000 8.000000
    vertex -5.400000 5.400000 8.000000
    vertex -5.400000 5.400000 9.000000
  endloop
endfacet
facet normal 0.000000 1.000000 0.000000
  outer loop
    vertex 5.400000 5.400000 8.000000
    vertex -5.400000 5.400000 9.000000
    vertex 5.400000 5.400000 9.000000
  endloop
endfacet
facet normal -1.000000 0.000000 0.000000
  outer loop
    vertex -5.400000 5.400000 8.000000
    vertex -5.400000 -5.400000 8.000000
    vertex -5.400000 -5.400000 9.000000
  endloop
endfacet
facet normal -1.000000 0.000000 0.000000
  outer loop
    vertex -5.400000 5.400000 8.000000
    vertex -5.400000 -5.400000 9.000000
    vertex -5.400000 5.400000 9.000000
  endloop
endfacet
facet normal 0.000000 -1.000000 0.000000
  outer loop
    vertex -5.400000 -5.400000 8.000000
    vertex 5.400000 -5.400000 8.000000
    vertex 5.400000 -5.400000 9.000000
  endloop
endfacet
facet normal 0.000000 -1.000000 0.000000
  outer loop
    vertex -5.400000 -5.400000 8.000000
    vertex 5.400000 -5.400000 9.000000
    vertex -5.400000 -5.400000 9.000000
  endloop
endfacet
facet normal 1.000000 0.000000 0.000000
  outer loop
    vertex 5.400000 -5.400000 8.000000
    vertex 5.400000 5.400000 8.000000
    vertex 5.400000 5.400000 9.000000
  endloop
endfacet
facet normal 1.000000 0.000000 0.000000
  outer loop
    vertex 5.400000 -5.400000 8.000000
    vertex 5.400000 5.400000 9.000000
    vertex 5.400000 -5.400000 9.000000
  endloop
endfacet
facet normal 0.000000 1.000000 0.000000
  outer loop
    vertex 5.400000 5.400000 9.000000
    vertex -5.400000 5.400000 9.000000
    vertex -5.400000 5.400000 10.000000
  endloop
endfacet
facet normal 0.000000 1.000000 0.000000
  outer loop
    vertex 5.400000 5.400000 9.000000
    vertex -5.400000 5.400000 10.000000
    vertex 5.400000 5.400000 10.000000
  endloop
endfacet
facet normal -1.000000 0.000000 0.000000
  outer loop
    vertex -5.400000 5.400000 9.000000
    vertex -5.400000 -5.400000 9.000000
    vertex -5.400000 -5.400000 10.000000
  endloop
endfacet
facet normal -1.000000 0.000000 0.000000
  outer loop
    vertex -5.400000 5.400000 9.000000
    vertex -5.400000 -5.400000 10.000000
    vertex -5.400000 5.400000 10.000000
  endloop
endfacet
facet normal 0.000000 -1.000000 0.000000
  outer loop
    vertex -5.400000 -5.400000 9.000000
    vertex 5.400000 -5.400000 9.000000
    vertex 5.400000 -5.400000 10.000000
  endloop
endfacet
facet normal 0.000000 -1.000000 0.000000
  outer loop
    vertex -5.400000 -5.400000 9.000000
    vertex 5.400000 -5.400000 10.000000
    vertex -5.400000 -5.400000 10.000000
  endloop
endfacet
facet normal 1.000000 0.000000 0.000000
  outer loop
    vertex 5.400000 -5.400000 9.000000
    vertex 5.400000 5.400000 9.000000
    vertex 5.400000 5.400000 10.000000
  endloop
endfacet
facet normal 1.000000 0.000000 0.000000
  outer loop
    vertex 5.400000 -5.400000 9.000000
    vertex 5.400000 5.400000 10.000000
    vertex 5.400000 -5.400000 10.000000
  endloop
endfacet
facet normal 0.000000 1.000000 0.000000
  outer loop
    vertex 5.400000 5.400000 10.000000
    vertex -5.400000 5.400000 10.000000
    vertex -5.400000 5.400000 11.000000
  endloop
endfacet
facet normal 0.000000 1.000000 0.000000
  outer loop
    vertex 5.400000 5.400000 10.000000
    vertex -5.400000 5.400000 11.000000
    vertex 5.400000 5.400000 11.000000
  endloop
endfacet
facet normal -1.000000 0.000000 0.000000
  outer loop
    vertex -5.400000 5.400000 10.000000
    vertex -5.400000 -5.400000 10.000000
    vertex -5.400000 -5.400000 11.000000
  endloop
endfacet
facet normal -1.000000 0.000000 0.000000
  outer loop
    vertex -5.400000 5.400000 10.000000
    vertex -5.400000 -5.400000 11.000000
    vertex -5.400000 5.400000 11.000000
  endloop
endfacet
facet normal 0.000000 -1.000000 0.000000
  outer loop
    vertex -5.400000 -5.400000 10.000000
    vertex 5.400000 -5.400000 10.000000
    vertex 5.400000 -5.400000 11.000000
  endloop
endfacet
facet normal 0.000000 -1.000000 0.000000
  outer loop
    vertex -5.400000 -5.400000 10.000000
    vertex 5.400000 -5.400000 11.000000
    vertex -5.400000 -5.400000 11.000000
  endloop
endfacet
facet normal 1.000000 0.000000 0.000000
  outer loop
    vertex 5.400000 -5.400000 10.000000
    vertex 5.400000 5.400000 10.000000
    vertex 5.400000 5.400000 11.000000
  endloop
endfacet
facet normal 1.000000 0.000000 0.000000
  outer loop
    vertex 5.400000 -5.400000 10.000000
    vertex 5.400000 5.400000 11.000000
    vertex 5.400000 -5.400000 11.000000
  endloop
endfacet
facet normal 0.000000 1.000000 0.000000
  outer loop
    vertex 5.400000 5.400000 11.000000
    vertex -5.400000 5.400000 11.000000
    vertex -5.400000 5.400000 12.000000
  endloop
endfacet
facet normal 0.000000 1.000000 0.000000
  outer loop
    vertex 5.400000 5.400000 11.000000
    vertex -5.400000 5.400000 12.000000
    vertex 5.400000 5.400000 12.000000
  endloop
endfacet
facet normal -1.000000 0.000000 0.000000
  outer loop
    vertex -5.400000 5.400000 11.000000
    vertex -5.400000 -5.400000 11.000000
    vertex -5.400000 -5.400000 12.000000
  endloop
endfacet
facet normal -1.000000 0.000000 0.000000
  outer loop
    vertex -5.400000 5.400000 11.000000
    vertex -5.400000 -5.400000 12.000000
    vertex -5.400000 5.400000 12.000000
  endloop
endfacet
facet normal 0.000000 -1.000000 0.000000
  outer loop
    vertex -5.400000 -5.400000 11.000000
    vertex 5.400000 -5.400000 11.000000
    vertex 5.400000 -5.400000 12.000000
  endloop
endfacet
facet normal 0.000000 -1.000000 0.000000
  outer loop
    vertex -5.400000 -5.400000 11.000000
    vertex 5.400000 -5.400000 12.000000
    vertex -5.400000 -5.400000 12.000000
  endloop
endfacet
facet normal 1.000000 0.000000 0.000000
  outer loop
    vertex 5.400000 -5.400000 11.000000
    vertex 5.400000 5.400000 11.000000
    vertex 5.400000 5.400000 12.000000
  endloop
endfacet
facet normal 1.000000 0.000000 0.000000
  outer loop
    vertex 5.400000 -5.400000 11.000000
    vertex 5.400000 5.400000 12.000000
    vertex 5.400000 -5.400000 12.000000
  endloop
endfacet
facet normal 0.000000 1.000000 0.000000
  outer loop
    vertex 5.400000 5.400000 12.000000
    vertex -5.400000 5.400000 12.000000
    vertex -5.400000 5.400000 13.000000
  endloop
endfacet
facet normal 0.000000 1.000000 0.000000
  outer loop
    vertex 5.400000 5.400000 12.000000
    vertex -5.400000 5.400000 13.000000
    vertex 5.400000 5.400000 13.000000
  endloop
endfacet
facet normal -1.000000 0.000000 0.000000
  outer loop
    vertex -5.400000 5.400000 12.000000
    vertex -5.400000 -5.400000 12.000000
    vertex -5.400000 -5.400000 13.000000
  endloop
endfacet
facet normal -1.000000 0.000000 0.000000
  outer loop
    vertex -5.400000 5.400000 12.000000
    vertex -5.400000 -5.400000 13.000000
    vertex -5.400000 5.400000 13.000000
  endloop
endfacet
facet normal 0.000000 -1.000000 0.000000
  outer loop
    vertex -5.400000 -5.400000 12.000000
    vertex 5.400000 -5.400000 12.000000
    vertex 5.400000 -5.400000 13.000000
  endloop
endfacet
facet normal 0.000000 -1.000000 0.000000
  outer loop
    vertex -5.400000 -5.400000 12.000000
    vertex 5.400000 -5.400000 13.000000
    vertex -5.400000 -5.400000 13.000000
  endloop
endfacet
facet normal 1.000000 0.000000 0.000000
  outer loop
    vertex 5.400000 -5.400000 12.000000
    vertex 5.400000 5.400000 12.000000
    vertex 5.400000 5.400000 13.000000
  endloop
endfacet
facet normal 1.000000 0.000000 0.000000
  outer loop
    vertex 5.400000 -5.400000 12.000000
    vertex 5.400000 5.400000 13.000000
    vertex 5.400000 -5.400000 13.000000
  endloop
endfacet
facet normal 0.000000 0.980581 -0.196116
  outer loop
    vertex 5.400000 5.400000 13.000000
    vertex -5.400000 5.400000 13.000000
    vertex -5.600000 5.600000 14.000000
  endloop
endfacet
facet normal 0.000000 0.980581 -0.196116
  outer loop
    vertex 5.400000 5.400000 13.000000
    vertex -5.600000 5.600000 14.000000
    vertex 5.600000 5.600000 14.000000
  endloop
endfacet
facet normal -0.980581 -0.000000 -0.196116
  outer loop
    vertex -5.400000 5.400000 13.000000
    vertex -5.400000 -5.400000 13.000000
    vertex -5.600000 -5.600000 14.000000
  endloop
endfacet
facet normal -0.980581 -0.000000 -0.196116
  outer loop
    vertex -5.400000 5.400000 13.000000
    vertex -5.600000 -5.600000 14.000000
    vertex -5.600000 5.600000 14.000000
  endloop
endfacet
facet normal 0.000000 -0.980581 -0.196116
  outer loop
    vertex -5.400000 -5.400000 13.000000
    vertex 5.400000 -5.400000 13.000000
    vertex 5.600000 -5.600000 14.000000
  endloop
endfacet
facet normal 0.000000 -0.980581 -0.196116
  outer loop
    vertex -5.400000 -5.400000 13.000000
    vertex 5.600000 -5.600000 14.000000
    vertex -5.600000 -5.600000 14.000000
  endloop
endfacet
facet normal 0.980581 0.000000 -0.196116
  outer loop
    vertex 5.400000 -5.400000 13.000000
    vertex 5.400000 5.400000 13.000000
    vertex 5.600000 5.600000 14.000000
  endloop
endfacet
facet normal 0.980581 0.000000 -0.196116
  outer loop
    vertex 5.400000 -5.400000 13.000000
    vertex 5.600000 5.600000 14.000000
    vertex 5.600000 -5.600000 14.000000
  endloop
endfacet
facet normal 0.000000 1.000000 0.000000
  outer loop
    vertex 5.600000 5.600000 14.000000
    vertex -5.600000 5.600000 14.000000
    vertex -5.600000 5.600000 15.000000
  endloop
endfacet
facet normal 0.000000 1.000000 0.000000
  outer loop
    vertex 5.600000 5.600000 14.000000
    vertex -5.600000 5.600000 15.000000
    vertex 5.600000 5.600000 15.000000
  endloop
endfacet
facet normal -1.000000 0.000000 0.000000
  outer loop
    vertex -5.600000 5.600000 14.000000
    vertex -5.600000 -5.600000 14.000000
    vertex -5.600000 -5.600000 15.000000
  endloop
endfacet
facet normal -1.000000 0.000000 0.000000
  outer loop
    vertex -5.600000 5.600000 14.000000
    vertex -5.600000 -5.600000 15.000000
    vertex -5.600000 5.600000 15.000000
  endloop
endfacet
facet normal 0.000000 -1.000000 0.000000
  outer loop
    vertex -5.600000 -5.600000 14.000000
    vertex 5.600000 -5.600000 14.000000
    vertex 5.600000 -5.600000 15.000000
  endloop
endfacet
facet normal 0.000000 -1.000000 0.000000
  outer loop
    vertex -5.600000 -5.600000 14.000000
    vertex 5.600000 -5.600000 15.000000
    vertex -5.600000 -5.600000 15.000000
  endloop
endfacet
facet normal 1.000000 0.000000 0.000000
  outer loop
    vertex 5.600000 -5.600000 14.000000
    vertex 5.600000 5.600000 14.000000
    vertex 5.600000 5.600000 15.000000
  endloop
endfacet
facet normal 1.000000 0.000000 0.000000
  outer loop
    vertex 5.600000 -5.600000 14.000000
    vertex 5.600000 5.600000 15.000000
    vertex 5.600000 -5.600000 15.000000
  endloop
endfacet
facet normal 0.000000 1.000000 0.000000
  outer loop
    vertex 5.600000 5.600000 15.000000
    vertex -5.600000 5.600000 15.000000
    vertex -5.600000 5.600000 16.000000
  endloop
endfacet
facet normal 0.000000 1.000000 0.000000
  outer loop
    vertex 5.600000 5.600000 15.000000
    vertex -5.600000 5.600000 16.000000
    vertex 5.600000 5.600000 16.000000
  endloop
endfacet
facet normal -1.000000 0.000000 0.000000
  outer loop
    vertex -5.600000 5.600000 15.000000
    vertex -5.600000 -5.600000 15.000000
    vertex -5.600000 -5.600000 16.000000
  endloop
endfacet
facet normal -1.000000 0.000000 0.000000
  outer loop
    vertex -5.600000 5.600000 15.000000
    vertex -5.600000 -5.600000 16.000000
    vertex -5.600000 5.600000 16.000000
  endloop
endfacet
facet normal 0.000000 -1.000000 0.000000
  outer loop
    vertex -5.600000 -5.600000 15.000000
    vertex 5.600000 -5.600000 15.000000
    vertex 5.600000 -5.600000 16.000000
  endloop
endfacet
facet normal 0.000000 -1.000000 0.000000
  outer loop
    vertex -5.600000 -5.600000 15.000000
    vertex 5.600000 -5.600000 16.000000
    vertex -5.600000 -5.600000 16.000000
  endloop
endfacet
facet normal 1.000000 0.000000 0.000000
  outer loop
    vertex 5.600000 -5.600000 15.000000
    vertex 5.600000 5.600000 15.000000
    vertex 5.600000 5.600000 16.000000
  endloop
endfacet
facet normal 1.000000 0.000000 0.000000
  outer loop
    vertex 5.600000 -5.600000 15.000000
    vertex 5.600000 5.600000 16.000000
    vertex 5.600000 -5.600000 16.000000
  endloop
endfacet
facet normal 0.000000 1.000000 0.000000
  outer loop
    vertex 5.600000 5.600000 16.000000
    vertex -5.600000 5.600000 16.000000
    vertex -5.600000 5.600000 17.000000
  endloop
endfacet
facet normal 0.000000 1.000000 0.000000
  outer loop
    vertex 5.600000 5.600000 16.000000
    vertex -5.600000 5.600000 17.000000
    vertex 5.600000 5.600000 17.000000
  endloop
endfacet
facet normal -1.000000 0.000000 0.000000
  outer loop
    vertex -5.600000 5.600000 16.000000
    vertex -5.600000 -5.600000 16.000000
    vertex -5.600000 -5.600000 17.000000
  endloop
endfacet
facet normal -1.000000 0.000000 0.000000
  outer loop
    vertex -5.600000 5.600000 16.000000
    vertex -5.600000 -5.600000 17.000000
    vertex -5.600000 5.600000 17.000000
  endloop
endfacet
facet normal 0.000000 -1.000000 0.000000
  outer loop
    vertex -5.600000 -5.600000 16.000000
    vertex 5.600000 -5.600000 16.000000
    vertex 5.600000 -5.600000 17.000000
  endloop
endfacet
facet normal 0.000000 -1.000000 0.000000
  outer loop
    vertex -5.600000 -5.600000 16.000000
    vertex 5.600000 -5.600000 17.000000
    vertex -5.600000 -5.600000 17.000000
  endloop
endfacet
facet normal 1.000000 0.000000 0.000000
  outer loop
    vertex 5.600000 -5.600000 16.000000
    vertex 5.600000 5.600000 16.000000
    vertex 5.600000 5.600000 17.000000
  endloop
endfacet
facet normal 1.000000 0.000000 0.000000
  outer loop
    vertex 5.600000 -5.600000 16.000000
    vertex 5.600000 5.600000 17.000000
    vertex 5.600000 -5.600000 17.000000
  endloop
endfacet
facet normal 0.000000 0.980581 0.196116
  outer loop
    vertex 5.600000 5.600000 17.000000
    vertex -5.600000 5.600000 17.000000
    vertex -5.400000 5.400000 18.000000
  endloop
endfacet
facet normal 0.000000 0.980581 0.196116
  outer loop
    vertex 5.600000 5.600000 17.000000
    vertex -5.400000 5.400000 18.000000
    vertex 5.400000 5.400000 18.000000
  endloop
endfacet
facet normal -0.980581 0.000000 0.196116
  outer loop
    vertex -5.600000 5.600000 17.000000
    vertex -5.600000 -5.600000 17.000000
    vertex -5.400000 -5.400000 18.000000
  endloop
endfacet
facet normal -0.980581 0.000000 0.196116
  outer loop
    vertex -5.600000 5.600000 17.000000
    vertex -5.400000 -5.400000 18.000000
    vertex -5.400000 5.400000 18.000000
  endloop
endfacet
facet normal 0.000000 -0.980581 0.196116
  outer loop
    vertex -5.600000 -5.600000 17.000000
    vertex 5.600000 -5.600000 17.000000
    vertex 5.400000 -5.400000 18.000000
  endloop
endfacet
facet normal 0.000000 -0.980581 0.196116
  outer loop
    vertex -5.600000 -5.600000 17.000000
    vertex 5.400000 -5.400000 18.000000
    vertex -5.400000 -5.400000 18.000000
  endloop
endfacet
facet normal 0.980581 -0.000000 0.196116
  outer loop
    vertex 5.600000 -5.600000 17.000000
    vertex 5.600000 5.600000 17.000000
    vertex 5.400000 5.400000 18.000000
  endloop
endfacet
facet normal 0.980581 -0.000000 0.196116
  outer loop
    vertex 5.600000 -5.600000 17.000000
    vertex 5.400000 5.400000 18.000000
    vertex 5.400000 -5.400000 18.000000
  endloop
endfacet
facet normal 0.000000 1.000000 0.000000
  outer loop
    vertex 5.400000 5.400000 18.000000
    vertex -5.400000 5.400000 18.000000
    vertex -5.400000 5.400000 19.000000
  endloop
endfacet
facet normal 0.000000 1.000000 0.000000
  outer loop
    vertex 5.400000 5.400000 18.000000
    vertex -5.400000 5.400000 19.000000
    vertex 5.400000 5.400000 19.000000
  endloop
endfacet
facet normal -1.000000 0.000000 0.000000
  outer loop
    vertex -5.400000 5.400000 18.000000
    vertex -5.400000 -5.400000 18.000000
    vertex -5.400000 -5.400000 19.000000
  endloop
endfacet
facet normal -1.000000 0.000000 0.000000
  outer loop
    vertex -5.400000 5.400000 18.000000
    vertex -5.400000 -5.400000 19.000000
    vertex -5.400000 5.400000 19.000000
  endloop
endfacet
facet normal 0.000000 -1.000000 0.000000
  outer loop
    vertex -5.400000 -5.400000 18.000000
    vertex 5.400000 -5.400000 18.000000
    vertex 5.400000 -5.400000 19.000000
  endloop
endfacet
facet normal 0.000000 -1.000000 0.000000
  outer loop
    vertex -5.400000 -5.400000 18.000000
    vertex 5.400000 -5.400000 19.000000
    vertex -5.400000 -5.400000 19.000000
  endloop
endfacet
facet normal 1.000000 0.000000 0.000000
  outer loop
    vertex 5.400000 -5.400000 18.000000
    vertex 5.400000 5.400000 18.000000
    vertex 5.400000 5.400000 19.000000
  endloop
endfacet
facet normal 1.000000 0.000000 0.000000
  outer loop
    vertex 5.400000 -5.400000 18.000000
    vertex 5.400000 5.400000 19.000000
    vertex 5.400000 -5.400000 19.000000
  endloop
endfacet
facet normal 0.000000 1.000000 0.000000
  outer loop
    vertex 5.400000 5.400000 19.000000
    vertex -5.400000 5.400000 19.000000
    vertex -5.400000 5.400000 20.000000
  endloop
endfacet
facet normal 0.000000 1.000000 0.000000
  outer loop
    vertex 5.400000 5.400000 19.000000
    vertex -5.400000 5.400000 20.000000
    vertex 5.400000 5.400000 20.000000
  endloop
endfacet
facet normal -1.000000 0.000000 0.000000
  outer loop
    vertex -5.400000 5.400000 19.000000
    vertex -5.400000 -5.400000 19.000000
    vertex -5.400000 -5.400000 20.000000
  endloop
endfacet
facet normal -1.000000 0.000000 0.000000
  outer loop
    vertex -5.400000 5.400000 19.000000
    vertex -5.400000 -5.400000 20.000000
    vertex -5.400000 5.400000 20.000000
  endloop
endfacet
facet normal 0.000000 -1.000000 0.000000
  outer loop
    vertex -5.400000 -5.400000 19.000000
    vertex 5.400000 -5.400000 19.000000
    vertex 5.400000 -5.400000 20.000000
  endloop
endfacet
facet normal 0.000000 -1.000000 0.000000
  outer loop
    vertex -5.400000 -5.400000 19.000000
    vertex 5.400000 -5.400000 20.000000
    vertex -5.400000 -5.400000 20.000000
  endloop
endfacet
facet normal 1.000000 0.000000 0.000000
  outer loop
    vertex 5.400000 -5.400000 19.000000
    vertex 5.400000 5.400000 19.000000
    vertex 5.400000 5.400000 20.000000
  endloop
endfacet
facet normal 1.000000 0.000000 0.000000
  outer loop
    vertex 5.400000 -5.400000 19.000000
    vertex 5.400000 5.400000 20.000000
    vertex 5.400000 -5.400000 20.000000
  endloop
endfacet
facet normal 0.000000 1.000000 0.000000
  outer loop
    vertex 5.400000 5.400000 20.000000
    vertex -5.400000 5.400000 20.000000
    vertex -5.400000 5.400000 21.000000
  endloop
endfacet
facet normal 0.000000 1.000000 0.000000
  outer loop
    vertex 5.400000 5.400000 20.000000
    vertex -5.400000 5.400000 21.000000
    vertex 5.400000 5.400000 21.000000
  endloop
endfacet
facet normal -1.000000 0.000000 0.000000
  outer loop
    vertex -5.400000 5.400000 20.000000
    vertex -5.400000 -5.400000 20.000000
    vertex -5.400000 -5.400000 21.000000
  endloop
endfacet
facet normal -1.000000 0.000000 0.000000
  outer loop
    vertex -5.400000 5.400000 20.000000
    vertex -5.400000 -5.400000 21.000000
    vertex -5.400000 5.400000 21.000000
  endloop
endfacet
facet normal 0.000000 -1.000000 0.000000
  outer loop
    vertex -5.400000 -5.400000 20.000000
    vertex 5.400000 -5.400000 20.000000
    vertex 5.400000 -5.400000 21.000000
  endloop
endfacet
facet normal 0.000000 -1.000000 0.000000
  outer loop
    vertex -5.400000 -5.400000 20.000000
    vertex 5.400000 -5.400000 21.000000
    vertex -5.400000 -5.400000 21.000000
  endloop
endfacet
facet normal 1.000000 0.000000 0.000000
  outer loop
    vertex 5.400000 -5.400000 20.000000
    vertex 5.400000 5.400000 20.000000
    vertex 5.400000 5.400000 21.000000
  endloop
endfacet
facet normal 1.000000 0.000000 0.000000
  outer loop
    vertex 5.400000 -5.400000 20.000000
    vertex 5.400000 5.400000 21.000000
    vertex 5.400000 -5.400000 21.000000
  endloop
endfacet
facet normal 0.000000 1.000000 0.000000
  outer loop
    vertex 5.400000 5.400000 21.000000
    vertex -5.400000 5.400000 21.000000
    vertex -5.400000 5.400000 22.000000
  endloop
endfacet
facet normal 0.000000 1.000000 0.000000
  outer loop
    vertex 5.400000 5.400000 21.000000
    vertex -5.400000 5.400000 22.000000
    vertex 5.400000 5.400000 22.000000
  endloop
endfacet
facet normal -1.000000 0.000000 0.000000
  outer loop
    vertex -5.400000 5.400000 21.000000
    vertex -5.400000 -5.400000 21.000000
    vertex -5.400000 -5.400000 22.000000
  endloop
endfacet
facet normal -1.000000 0.000000 0.000000
  outer loop
    vertex -5.400000 5.400000 21.000000
    vertex -5.400000 -5.400000 22.000000
    vertex -5.400000 5.400000 22.000000
  endloop
endfacet
facet normal 0.000000 -1.000000 0.000000
  outer loop
    vertex -5.400000 -5.400000 21.000000
    vertex 5.400000 -5.400000 21.000000
    vertex 5.400000 -5.400000 22.000000
  endloop
endfacet
facet normal 0.000000 -1.000000 0.000000
  outer loop
    vertex -5.400000 -5.400000 21.000000
    vertex 5.400000 -5.400000 22.000000
    vertex -5.400000 -5.400000 22.000000
  endloop
endfacet
facet normal 1.000000 0.000000 0.000000
  outer loop
    vertex 5.400000 -5.400000 21.000000
    vertex 5.400000 5.400000 21.000000
    vertex 5.400000 5.400000 22.000000
  endloop
endfacet
facet normal 1.000000 0.000000 0.000000
  outer loop
    vertex 5.400000 -5.400000 21.000000
    vertex 5.400000 5.400000 22.000000
    vertex 5.400000 -5.400000 22.000000
  endloop
endfacet
facet normal 0.000000 1.000000 0.000000
  outer loop
    vertex 5.400000 5.400000 22.000000
    vertex -5.400000 5.400000 22.000000
    vertex -5.400000 5.400000 23.000000
  endloop
endfacet
facet normal 0.000000 1.000000 0.000000
  outer loop
    vertex 5.400000 5.400000 22.000000
    vertex -5.400000 5.400000 23.000000
    vertex 5.400000 5.400000 23.000000
  endloop
endfacet
facet normal -1.000000 0.000000 0.000000
  outer loop
    vertex -5.400000 5.400000 22.000000
    vertex -5.400000 -5.400000 22.000000
    vertex -5.400000 -5.400000 23.000000
  endloop
endfacet
facet normal -1.000000 0.000000 0.000000
  outer loop
    vertex -5.400000 5.400000 22.000000
    vertex -5.400000 -5.400000 23.000000
    vertex -5.400000 5.400000 23.000000
  endloop
endfacet
facet normal 0.000000 -1.000000 0.000000
  outer loop
    vertex -5.400000 -5.400000 22.000000
    vertex 5.400000 -5.400000 22.000000
    vertex 5.400000 -5.400000 23.000000
  endloop
endfacet
facet normal 0.000000 -1.000000 0.000000
  outer loop
    vertex -5.400000 -5.400000 22.000000
    vertex 5.400000 -5.400000 23.000000
    vertex -5.400000 -5.400000 23.000000
  endloop
endfacet
facet normal 1.000000 0.000000 0.000000
  outer loop
    vertex 5.400000 -5.400000 22.000000
    vertex 5.400000 5.400000 22.000000
    vertex 5.400000 5.400000 23.000000
  endloop
endfacet
facet normal 1.000000 0.000000 0.000000
  outer loop
    vertex 5.400000 -5.400000 22.000000
    vertex 5.400000 5.400000 23.000000
    vertex 5.400000 -5.400000 23.000000
  endloop
endfacet
facet normal 0.000000 1.000000 0.000000
  outer loop
    vertex 5.400000 5.400000 23.000000
    vertex -5.400000 5.400000 23.000000
    vertex -5.400000 5.400000 24.000000
  endloop
endfacet
facet normal 0.000000 1.000000 0.000000
  outer loop
    vertex 5.400000 5.400000 23.000000
    vertex -5.400000 5.400000 24.000000
    vertex 5.400000 5.400000 24.000000
  endloop
endfacet
facet normal -1.000000 0.000000 0.000000
  outer loop
    vertex -5.400000 5.400000 23.000000
    vertex -5.400000 -5.400000 23.000000
    vertex -5.400000 -5.400000 24.000000
  endloop
endfacet
facet normal -1.000000 0.000000 0.000000
  outer loop
    vertex -5.400000 5.400000 23.000000
    vertex -5.400000 -5.400000 24.000000
    vertex -5.400000 5.400000 24.000000
  endloop
endfacet
facet normal 0.000000 -1.000000 0.000000
  outer loop
    vertex -5.400000 -5.400000 23.000000
    vertex 5.400000 -5.400000 23.000000
    vertex 5.400000 -5.400000 24.000000
  endloop
endfacet
facet normal 0.000000 -1.000000 0.000000
  outer loop
    vertex -5.400000 -5.400000 23.000000
    vertex 5.400000 -5.400000 24.000000
    vertex -5.400000 -5.400000 24.000000
  endloop
endfacet
facet normal 1.000000 0.000000 0.000000
  outer loop
    vertex 5.400000 -5.400000 23.000000
    vertex 5.400000 5.400000 23.000000
    vertex 5.400000 5.400000 24.000000
  endloop
endfacet
facet normal 1.000000 0.000000 0.000000
  outer loop
    vertex 5.400000 -5.400000 23.000000
    vertex 5.400000 5.400000 24.000000
    vertex 5.400000 -5.400000 24.000000
  endloop
endfacet
facet normal 0.000000 1.000000 0.000000
  outer loop
    vertex 5.400000 5.400000 24.000000
    vertex -5.400000 5.400000 24.000000
    vertex -5.400000 5.400000 25.000000
  endloop
endfacet
facet normal 0.000000 1.000000 0.000000
  outer loop
    vertex 5.400000 5.400000 24.000000
    vertex -5.400000 5.400000 25.000000
    vertex 5.400000 5.400000 25.000000
  endloop
endfacet
facet normal -1.000000 0.000000 0.000000
  outer loop
    vertex -5.400000 5.400000 24.000000
    vertex -5.400000 -5.400000 24.000000
    vertex -5.400000 -5.400000 25.000000
  endloop
endfacet
facet normal -1.000000 0.000000 0.000000
  outer loop
    vertex -5.400000 5.400000 24.000000
    vertex -5.400000 -5.400000 25.000000
    vertex -5.400000 5.400000 25.000000
  endloop
endfacet
facet normal 0.000000 -1.000000 0.000000
  outer loop
    vertex -5.400000 -5.400000 24.000000
    vertex 5.400000 -5.400000 24.000000
    vertex 5.400000 -5.400000 25.000000
  endloop
endfacet
facet normal 0.000000 -1.000000 0.000000
  outer loop
    vertex -5.400000 -5.400000 24.000000
    vertex 5.400000 -5.400000 25.000000
    vertex -5.400000 -5.400000 25.000000
  endloop
endfacet
facet normal 1.000000 0.000000 0.000000
  outer loop
    vertex 5.400000 -5.400000 24.000000
    vertex 5.400000 5.400000 24.000000
    vertex 5.400000 5.400000 25.000000
  endloop
endfacet
facet normal 1.000000 0.000000 0.000000
  outer loop
    vertex 5.400000 -5.400000 24.000000
    vertex 5.400000 5.400000 25.000000
    vertex 5.400000 -5.400000 25.000000
  endloop
endfacet
facet normal 0.000000 1.000000 0.000000
  outer loop
    vertex 5.400000 5.400000 25.000000
    vertex -5.400000 5.400000 25.000000
    vertex -5.400000 5.400000 26.000000
  endloop
endfacet
facet normal 0.000000 1.000000 0.000000
  outer loop
    vertex 5.400000 5.400000 25.000000
    vertex -5.400000 5.400000 26.000000
    vertex 5.400000 5.400000 26.000000
  endloop
endfacet
facet normal -1.000000 0.000000 0.000000
  outer loop
    vertex -5.400000 5.400000 25.000000
    vertex -5.400000 -5.400000 25.000000
    vertex -5.400000 -5.400000 26.000000
  endloop
endfacet
facet normal -1.000000 0.000000 0.000000
  outer loop
    vertex -5.400000 5.400000 25.000000
    vertex -5.400000 -5.400000 26.000000
    vertex -5.400000 5.400000 26.000000
  endloop
endfacet
facet normal 0.000000 -1.000000 0.000000
  outer loop
    vertex -5.400000 -5.400000 25.000000
    vertex 5.400000 -5.400000 25.000000
    vertex 5.400000 -5.400000 26.000000
  endloop
endfacet
facet normal 0.000000 -1.000000 0.000000
  outer loop
    vertex -5.400000 -5.400000 25.000000
    vertex 5.400000 -5.400000 26.000000
    vertex -5.400000 -5.400000 26.000000
  endloop
endfacet
facet normal 1.000000 0.000000 0.000000
  outer loop
    vertex 5.400000 -5.400000 25.000000
    vertex 5.400000 5.400000 25.000000
    vertex 5.400000 5.400000 26.000000
  endloop
endfacet
facet normal 1.000000 0.000000 0.000000
  outer loop
    vertex 5.400000 -5.400000 25.000000
    vertex 5.400000 5.400000 26.000000
    vertex 5.400000 -5.400000 26.000000
  endloop
endfacet
facet normal 0.000000 1.000000 0.000000
  outer loop
    vertex 5.400000 5.400000 26.000000
    vertex -5.400000 5.400000 26.000000
    vertex -5.400000 5.400000 27.000000
  endloop
endfacet
facet normal 0.000000 1.000000 0.000000
  outer loop
    vertex 5.400000 5.400000 26.000000
    vertex -5.400000 5.400000 27.000000
    vertex 5.400000 5.400000 27.000000
  endloop
endfacet
facet normal -1.000000 0.000000 0.000000
  outer loop
    vertex -5.400000 5.400000 26.000000
    vertex -5.400000 -5.400000 26.000000
    vertex -5.400000 -5.400000 27.000000
  endloop
endfacet
facet normal -1.000000 0.000000 0.000000
  outer loop
    vertex -5.400000 5.400000 26.000000
    vertex -5.400000 -5.400000 27.000000
    vertex -5.400000 5.400000 27.000000
  endloop
endfacet
facet normal 0.000000 -1.000000 0.000000
  outer loop
    vertex -5.400000 -5.400000 26.000000
    vertex 5.400000 -5.400000 26.000000
    vertex 5.400000 -5.400000 27.000000
  endloop
endfacet
facet normal 0.000000 -1.000000 0.000000
  outer loop
    vertex -5.400000 -5.400000 26.000000
    vertex 5.400000 -5.400000 27.000000
    vertex -5.400000 -5.400000 27.000000
  endloop
endfacet
facet normal 1.000000 0.000000 0.000000
  outer loop
    vertex 5.400000 -5.400000 26.000000
    vertex 5.400000 5.400000 26.000000
    vertex 5.400000 5.400000 27.000000
  endloop
endfacet
facet normal 1.000000 0.000000 0.000000
  outer loop
    vertex 5.400000 -5.400000 26.000000
    vertex 5.400000 5.400000 27.000000
    vertex 5.400000 -5.400000 27.000000
  endloop
endfacet
facet normal 0.000000 1.000000 0.000000
  outer loop
    vertex 5.400000 5.400000 27.000000
    vertex -5.400000 5.400000 27.000000
    vertex -5.400000 5.400000 28.000000
  endloop
endfacet
facet normal 0.000000 1.000000 0.000000
  outer loop
    vertex 5.400000 5.400000 27.000000
    vertex -5.400000 5.400000 28.000000
    vertex 5.400000 5.400000 28.000000
  endloop
endfacet
facet normal -1.000000 0.000000 0.000000
  outer loop
    vertex -5.400000 5.400000 27.000000
    vertex -5.400000 -5.400000 27.000000
    vertex -5.400000 -5.400000 28.000000
  endloop
endfacet
facet normal -1.000000 0.000000 0.000000
  outer loop
    vertex -5.400000 5.400000 27.000000
    vertex -5.400000 -5.400000 28.000000
    vertex -5.400000 5.400000 28.000000
  endloop
endfacet
facet normal 0.000000 -1.000000 0.000000
  outer loop
    vertex -5.400000 -5.400000 27.000000
    vertex 5.400000 -5.400000 27.000000
    vertex 5.400000 -5.400000 28.000000
  endloop
endfacet
facet normal 0.000000 -1.000000 0.000000
  outer loop
    vertex -5.400000 -5.400000 27.000000
    vertex 5.400000 -5.400000 28.000000
    vertex -5.400000 -5.400000 28.000000
  endloop
endfacet
facet normal 1.000000 0.000000 0.000000
  outer loop
    vertex 5.400000 -5.400000 27.000000
    vertex 5.400000 5.400000 27.000000
    vertex 5.400000 5.400000 28.000000
  endloop
endfacet
facet normal 1.000000 0.000000 0.000000
  outer loop
    vertex 5.400000 -5.400000 27.000000
    vertex 5.400000 5.400000 28.000000
    vertex 5.400000 -5.400000 28.000000
  endloop
endfacet
facet normal 0.000000 1.000000 0.000000
  outer loop
    vertex 5.400000 5.400000 28.000000
    vertex -5.400000 5.400000 28.000000
    vertex -5.400000 5.400000 29.000000
  endloop
endfacet
facet normal 0.000000 1.000000 0.000000
  outer loop
    vertex 5.400000 5.400000 28.000000
    vertex -5.400000 5.400000 29.000000
    vertex 5.400000 5.400000 29.000000
  endloop
endfacet
facet normal -1.000000 0.000000 0.000000
  outer loop
    vertex -5.400000 5.400000 28.000000
    vertex -5.400000 -5.400000 28.000000
    vertex -5.400000 -5.400000 29.000000
  endloop
endfacet
facet normal -1.000000 0.000000 0.000000
  outer loop
    vertex -5.400000 5.400000 28.000000
    vertex -5.400000 -5.400000 29.000000
    vertex -5.400000 5.400000 29.000000
  endloop
endfacet
facet normal 0.000000 -1.000000 0.000000
  outer loop
    vertex -5.400000 -5.400000 28.000000
    vertex 5.400000 -5.400000 28.000000
    vertex 5.400000 -5.400000 29.000000
  endloop
endfacet
facet normal 0.000000 -1.000000 0.000000
  outer loop
    vertex -5.400000 -5.400000 28.000000
    vertex 5.400000 -5.400000 29.000000
    vertex -5.400000 -5.400000 29.000000
  endloop
endfacet
facet normal 1.000000 0.000000 0.000000
  outer loop
    vertex 5.400000 -5.400000 28.000000
    vertex 5.400000 5.400000 28.000000
    vertex 5.400000 5.400000 29.000000
  endloop
endfacet
facet normal 1.000000 0.000000 0.000000
  outer loop
    vertex 5.400000 -5.400000 28.000000
    vertex 5.400000 5.400000 29.000000
    vertex 5.400000 -5.400000 29.000000
  endloop
endfacet
facet normal 0.000000 1.000000 0.000000
  outer loop
    vertex 5.400000 5.400000 29.000000
    vertex -5.400000 5.400000 29.000000
    vertex -5.400000 5.400000 30.000000
  endloop
endfacet
facet normal 0.000000 1.000000 0.000000
  outer loop
    vertex 5.400000 5.400000 29.000000
    vertex -5.400000 5.400000 30.000000
    vertex 5.400000 5.400000 30.000000
  endloop
endfacet
facet normal -1.000000 0.000000 0.000000
  outer loop
    vertex -5.400000 5.400000 29.000000
    vertex -5.400000 -5.400000 29.000000
    vertex -5.400000 -5.400000 30.000000
  endloop
endfacet
facet normal -1.000000 0.000000 0.000000
  outer loop
    vertex -5.400000 5.400000 29.000000
    vertex -5.400000 -5.400000 30.000000
    vertex -5.400000 5.400000 30.000000
  endloop
endfacet
facet normal 0.000000 -1.000000 0.000000
  outer loop
    vertex -5.400000 -5.400000 29.000000
    vertex 5.400000 -5.400000 29.000000
    vertex 5.400000 -5.400000 30.000000
  endloop
endfacet
facet normal 0.000000 -1.000000 0.000000
  outer loop
    vertex -5.400000 -5.400000 29.000000
    vertex 5.400000 -5.400000 30.000000
    vertex -5.400000 -5.400000 30.000000
  endloop
endfacet
facet normal 1.000000 0.000000 0.000000
  outer loop
    vertex 5.400000 -5.400000 29.000000
    vertex 5.400000 5.400000 29.000000
    vertex 5.400000 5.400000 30.000000
  endloop
endfacet
facet normal 1.000000 0.000000 0.000000
  outer loop
    vertex 5.400000 -5.400000 29.000000
    vertex 5.400000 5.400000 30.000000
    vertex 5.400000 -5.400000 30.000000
  endloop
endfacet
facet normal -0.000000 -0.000000 -1.000000
  outer loop
    vertex 5.400000 5.400000 0.000000
    vertex -5.400000 5.400000 0.000000
    vertex -5.400000 -5.400000 0.000000
  endloop
endfacet
facet normal -0.000000 -0.000000 -1.000000
  outer loop
    vertex 5.400000 5.400000 0.000000
    vertex -5.400000 -5.400000 0.000000
    vertex 5.400000 -5.400000 0.000000
  endloop
endfacet
facet normal 0.000000 0.000000 1.000000
  outer loop
    vertex 5.400000 5.400000 30.000000
    vertex -5.400000 5.400000 30.000000
    vertex -5.400000 -5.400000 30.000000
  endloop
endfacet
facet normal 0.000000 0.000000 1.000000
  outer loop
    vertex 5.400000 5.400000 30.000000
    vertex -5.400000 -5.400000 30.000000
    vertex 5.400000 -5.400000 30.000000
  endloop
endfacet
endsolid modular_shaft
